<svg version="1" xmlns="http://www.w3.org/2000/svg" width="484" height="484" viewBox="0 0 363.000000 363.000000"><path d="M114 182.2V306h39l.1-3.3c0-1.7 0-14.5.1-28.3v-25l8.4-8.8c4.6-4.8 8.8-8.5 9.4-8.1.8.5 24.5 34.4 47 67.2l4.3 6.3h22.3c12.3 0 22.4-.2 22.4-.5 0-.4-5.3-8.1-11.8-17.3-6.5-9.2-16.2-22.9-21.5-30.4-5.4-7.6-13.9-19.8-19-27-5.2-7.3-11.4-16.3-14-19.9l-4.5-6.6 2.5-2.9c1.3-1.6 3.9-4.5 5.6-6.4 1.8-1.9 8.4-9.4 14.7-16.5 6.3-7.2 11.7-13.2 12.1-13.5.6-.5 7.2-8 16.1-18 3.1-3.6 7.3-8.3 9.3-10.4 2-2.2 3.2-4.2 2.6-4.5-.5-.3-10.9-.6-23.1-.5h-22.2l-3.5 4c-2 2.1-6.3 7-9.7 10.9-5.2 5.9-12.4 14-16.1 18.1-.6.6-3.5 3.9-6.5 7.4-3 3.4-6.8 7.6-8.4 9.3-1.5 1.8-5.5 6.6-8.9 10.7-3.3 4.1-6.4 7.9-6.8 8.3-.4.5-.7-29.9-.7-67.5-.1-37.5-.1-69.7-.1-71.3l-.1-3h-39v123.7z"/></svg>